<?xml version="1.0" encoding="UTF-8"?>
<svg width="30px" height="30px" viewBox="0 0 30 30" version="1.1" xmlns="http://www.w3.org/2000/svg" xmlns:xlink="http://www.w3.org/1999/xlink">
    <!-- Generator: Sketch 51.3 (57544) - http://www.bohemiancoding.com/sketch -->
    <title>icons / details</title>
    <desc>Created with Sketch.</desc>
    <defs></defs>
    <g id="icons-/-details" stroke="none" stroke-width="1" fill="none" fill-rule="evenodd">
        <path d="M23.5701124,2 C23.8075329,2 24,2.19433189 24,2.42958608 L24,27.5704141 C24,27.8076676 23.8100306,28 23.5728077,28 L6.42719229,28 C6.19126071,28 6,27.8065271 6,27.5696246 L6,10.2333333 L13.2857143,10.2333333 C13.759101,10.2333333 14.1428571,9.84531345 14.1428571,9.36666667 L14.1428571,2 L23.5701124,2 Z M6.42857143,8.5 L12.4285714,2.43333333 L12.4285714,8.5 L6.42857143,8.5 Z" id="Shape" fill="#3C4D63" fill-rule="nonzero" transform="translate(15.000000, 15.000000) scale(-1, 1) translate(-15.000000, -15.000000) "></path>
        <path d="M8.56833686,22.3666667 C8.33335114,22.3666667 8.14285714,22.5587863 8.14285714,22.8040599 L8.14285714,23.6626068 C8.14285714,23.9041723 8.33672657,24.1 8.56833686,24.1 L21.4316631,24.1 C21.6666489,24.1 21.8571429,23.9078804 21.8571429,23.6626068 L21.8571429,22.8040599 C21.8571429,22.5624943 21.6632734,22.3666667 21.4316631,22.3666667 L8.56833686,22.3666667 Z M8.56833686,18.0333333 C8.33335114,18.0333333 8.14285714,18.2254531 8.14285714,18.4707265 L8.14285714,19.3292735 C8.14285714,19.570839 8.33672657,19.7666667 8.56833686,19.7666667 L21.4316631,19.7666667 C21.6666489,19.7666667 21.8571429,19.574547 21.8571429,19.3292735 L21.8571429,18.4707265 C21.8571429,18.2291609 21.6632734,18.0333333 21.4316631,18.0333333 L8.56833686,18.0333333 Z M8.56833686,13.7 C8.33335114,13.7 8.14285714,13.8921197 8.14285714,14.1373932 L8.14285714,14.9959401 C8.14285714,15.2375058 8.33672657,15.4333333 8.56833686,15.4333333 L21.4316631,15.4333333 C21.6666489,15.4333333 21.8571429,15.2412136 21.8571429,14.9959401 L21.8571429,14.1373932 C21.8571429,13.8958276 21.6632734,13.7 21.4316631,13.7 L8.56833686,13.7 Z" id="Shape" fill="#7F8A98" fill-rule="nonzero" transform="translate(15.000000, 18.900000) scale(-1, 1) translate(-15.000000, -18.900000) "></path>
    </g>
</svg>