<?xml version="1.0" encoding="UTF-8"?>
<svg width="30px" height="30px" viewBox="0 0 30 30" version="1.1" xmlns="http://www.w3.org/2000/svg" xmlns:xlink="http://www.w3.org/1999/xlink">
    <!-- Generator: Sketch 51.3 (57544) - http://www.bohemiancoding.com/sketch -->
    <title>icons / condition</title>
    <desc>Created with Sketch.</desc>
    <defs></defs>
    <g id="icons-/-condition" stroke="none" stroke-width="1" fill="none" fill-rule="evenodd">
        <g id="Group-2" transform="translate(3.000000, 3.000000)" fill="#3C4D63" stroke="#3C4D63" stroke-width="0.923076923">
            <path d="M0,13.5529412 C0.179527559,13.1670588 0.377952756,12.8094118 0.585826772,12.4517647 C0.793700787,12.0941176 1.01102362,11.7552941 1.22834646,11.4164706 C1.67244094,10.7388235 2.14488189,10.0894118 2.64566929,9.45882353 C3.62834646,8.19764706 4.69606299,7.01176471 5.82047244,5.89176471 C6.94488189,4.77176471 8.13543307,3.70823529 9.4015748,2.72 C10.0346457,2.23058824 10.6866142,1.76 11.3669291,1.30823529 C11.7070866,1.09176471 12.0566929,0.865882353 12.4062992,0.668235294 C12.7653543,0.461176471 13.1244094,0.263529412 13.511811,0.0847058824 C13.3322835,0.470588235 13.1338583,0.828235294 12.9259843,1.18588235 C12.7181102,1.54352941 12.5007874,1.88235294 12.2834646,2.22117647 C11.8393701,2.89882353 11.3669291,3.54823529 10.8661417,4.17882353 C9.87401575,5.44 8.81574803,6.62588235 7.68188976,7.74588235 C6.55748031,8.86588235 5.36692913,9.92941176 4.1007874,10.9082353 C3.46771654,11.3976471 2.81574803,11.8682353 2.13543307,12.32 C1.79527559,12.5364706 1.44566929,12.7623529 1.09606299,12.96 C0.746456693,13.1764706 0.377952756,13.3835294 0,13.5529412 Z" id="Shape"></path>
            <path d="M10.488189,24 C10.6677165,23.6141176 10.8661417,23.2564706 11.0740157,22.8988235 C11.2818898,22.5411765 11.4992126,22.2023529 11.7165354,21.8635294 C12.1606299,21.1858824 12.6330709,20.5364706 13.1338583,19.9058824 C14.1165354,18.6447059 15.184252,17.4588235 16.3086614,16.3388235 C17.4330709,15.2188235 18.623622,14.1552941 19.8897638,13.1670588 C20.5228346,12.6776471 21.1748031,12.2070588 21.8551181,11.7552941 C22.1952756,11.5388235 22.5448819,11.3129412 22.8944882,11.1152941 C23.2535433,10.9082353 23.6125984,10.7105882 24,10.5317647 C23.8204724,10.9176471 23.6220472,11.2752941 23.4141732,11.6329412 C23.2062992,11.9905882 22.9889764,12.3294118 22.7716535,12.6682353 C22.3275591,13.3458824 21.8551181,13.9952941 21.3543307,14.6258824 C20.3622047,15.8870588 19.303937,17.0729412 18.1700787,18.1929412 C17.0456693,19.3129412 15.8551181,20.3764706 14.5889764,21.3552941 C13.9559055,21.8447059 13.303937,22.3152941 12.623622,22.7670588 C12.2834646,22.9835294 11.9338583,23.2094118 11.584252,23.4070588 C11.2346457,23.6235294 10.8661417,23.8305882 10.488189,24 Z" id="Shape"></path>
            <path d="M0.491338583,22.7388235 C0.850393701,22.1741176 1.23779528,21.6282353 1.62519685,21.0917647 C2.01259843,20.5552941 2.40944882,20.0282353 2.81574803,19.5105882 C3.22204724,18.9929412 3.62834646,18.4752941 4.05354331,17.9670588 C4.46929134,17.4588235 4.89448819,16.96 5.31968504,16.4611765 C7.02992126,14.4752941 8.82519685,12.5647059 10.6771654,10.72 C12.5291339,8.87529412 14.4472441,7.08705882 16.4409449,5.37411765 C16.9417323,4.95058824 17.4425197,4.52705882 17.9527559,4.11294118 C18.207874,3.90588235 18.4629921,3.69882353 18.7181102,3.49176471 L19.4929134,2.88 C20.0125984,2.47529412 20.5417323,2.08 21.080315,1.69411765 C21.6188976,1.30823529 22.1669291,0.922352941 22.7338583,0.564705882 C22.3748031,1.12941176 21.9968504,1.67529412 21.6,2.21176471 C21.2125984,2.74823529 20.815748,3.27529412 20.4094488,3.79294118 L19.7952756,4.56470588 C19.5874016,4.81882353 19.3795276,5.07294118 19.1716535,5.32705882 C18.7559055,5.83529412 18.3307087,6.33411765 17.9055118,6.83294118 C16.1952756,8.81882353 14.4,10.72 12.5385827,12.5741176 C10.6866142,14.4188235 8.76850394,16.2070588 6.77480315,17.9105882 C6.27401575,18.3341176 5.77322835,18.7576471 5.26299213,19.1717647 C4.75275591,19.5858824 4.24251969,20 3.71338583,20.4047059 C3.19370079,20.8094118 2.66456693,21.2047059 2.12598425,21.5905882 C1.60629921,22.0047059 1.05826772,22.3811765 0.491338583,22.7388235 Z" id="Shape"></path>
        </g>
    </g>
</svg>