<svg width="30" height="30" xmlns="http://www.w3.org/2000/svg" xmlns:xlink="http://www.w3.org/1999/xlink"><defs><path d="M27 26.1a1 1 0 1 1 0 1.9H3a1 1 0 1 1 0-1.9h24zM27 9L12 24l-6 .7.7-5.9 13-13 2-2c1-1 2.5-1 3.4 0l2 2a2.3 2.3 0 0 1 0 3.2zM8.2 22.4l2.9-.3 12-11.9-2.6-2.6-12 12-.3 2.8zM23.4 5l-.3.1-1.3 1.3 2.6 2.6 1.3-1.3c.2-.2.2-.5 0-.6l-2-2-.3-.1z" id="a"/></defs><g fill="none" fill-rule="evenodd"><mask id="b" fill="#fff"><use xlink:href="#a"/></mask><use fill="#000" fill-rule="nonzero" xlink:href="#a"/><g mask="url(#b)" fill="#FFF"><path d="M0 0h30v30H0z"/></g></g></svg>