<?xml version="1.0" encoding="UTF-8"?>
<svg width="20px" height="18px" viewBox="0 0 20 18" version="1.1" xmlns="http://www.w3.org/2000/svg" xmlns:xlink="http://www.w3.org/1999/xlink">
    <!-- Generator: Sketch 52.1 (67048) - http://www.bohemiancoding.com/sketch -->
    <title>Group</title>
    <desc>Created with Sketch.</desc>
    <g id="Desktop-layouts" stroke="none" stroke-width="1" fill="none" fill-rule="evenodd">
        <g id="05---Photos---Routing" transform="translate(-135.000000, -328.000000)">
            <g id="Group" transform="translate(134.000000, 326.000000)">
                <path d="M12.7383277,3.05524256 L20.2993345,16.3442848 C20.8455709,17.3043367 20.5101072,18.5254246 19.5500553,19.071661 C19.2486348,19.2431589 18.9078005,19.3333333 18.5610068,19.3333333 L3.43899319,19.3333333 C2.33442369,19.3333333 1.43899319,18.4379028 1.43899319,17.3333333 C1.43899319,16.9865396 1.52916764,16.6457054 1.70066553,16.3442848 L9.26167234,3.05524256 C9.80790874,2.0951907 11.0289966,1.75972699 11.9890485,2.3059634 C12.3016328,2.48381309 12.560478,2.74265825 12.7383277,3.05524256 Z" id="Triangle" fill="#FFE900"></path>
                <path d="M10.1010741,16 L10.1010741,14.323 L11.9470741,14.323 L11.9470741,16 L10.1010741,16 Z M10.0620741,7.134 L11.9860741,7.134 L11.8040741,13.257 L10.2440741,13.257 L10.0620741,7.134 Z" id="!" fill="#3C4D63"></path>
            </g>
        </g>
    </g>
</svg>