<svg width="30" height="30" xmlns="http://www.w3.org/2000/svg" xmlns:xlink="http://www.w3.org/1999/xlink"><defs><path d="M11.7 1c-.8 0-1.4.6-1.4 1.4v1.4H4.7c-.4 0-.7.3-.7.7v1.4c0 .4.3.7.7.7h19.6c.4 0 .7-.3.7-.7V4.5c0-.4-.3-.7-.7-.7h-5.6V2.4c0-.8-.6-1.4-1.4-1.4h-5.6zm0 1.4h5.6v1.4h-5.6V2.4zM5.4 8v19.6c0 .8.6 1.4 1.4 1.4h15.4c.8 0 1.4-.6 1.4-1.4V8H5.4zm4.9 2.8c.4 0 .7.3.7.7v14c0 1-1.4 1-1.4 0v-14c0-.4.3-.7.7-.7zm4.2 0c.4 0 .7.3.7.7v14c0 1-1.4 1-1.4 0v-14c0-.4.3-.7.7-.7zm4.2 0c.4 0 .7.3.7.7v14c0 1-1.4 1-1.4 0v-14c0-.4.3-.7.7-.7z" id="a"/></defs><g fill="none" fill-rule="evenodd"><mask id="b" fill="#fff"><use xlink:href="#a"/></mask><use fill="#fff" fill-rule="nonzero" xlink:href="#a"/><g mask="url(#b)" fill="#fff"><path d="M0 0h30v30H0z"/></g></g></svg>