<?xml version="1.0" encoding="UTF-8"?>
<svg width="30px" height="30px" viewBox="0 0 30 30" version="1.1" xmlns="http://www.w3.org/2000/svg" xmlns:xlink="http://www.w3.org/1999/xlink">
    <!-- Generator: Sketch 51.3 (57544) - http://www.bohemiancoding.com/sketch -->
    <title>icons / camera</title>
    <desc>Created with Sketch.</desc>
    <defs></defs>
    <g id="icons-/-camera" stroke="none" stroke-width="1" fill="none" fill-rule="evenodd">
        <path d="M25.6736842,8.5792277 L21.7326316,8.5792277 C21.5410526,8.5792277 21.3768421,8.46737683 21.2947368,8.29960053 L20.5284211,6.45406125 C20.1726316,5.58721704 19.3242105,5 18.3936842,5 L11.6063158,5 C10.6757895,5 9.82736842,5.55925433 9.47157895,6.45406125 L8.70526316,8.27163782 C8.62315789,8.43941411 8.45894737,8.55126498 8.26736842,8.55126498 L4.32631579,8.55126498 C3.04,8.55126498 2,9.6138482 2,10.9280959 L2,23.6231691 C2,24.9374168 3.04,26 4.32631579,26 L25.6736842,26 C26.96,26 28,24.9374168 28,23.6231691 L28,10.9560586 C28,9.64181092 26.96,8.5792277 25.6736842,8.5792277 Z M15,23.0359521 C11.9073684,23.0359521 9.38947368,20.4633822 9.38947368,17.3035952 C9.38947368,14.1438083 11.9073684,11.5712383 15,11.5712383 C18.0926316,11.5712383 20.6105263,14.1438083 20.6105263,17.3035952 C20.6105263,20.4633822 18.0926316,23.0359521 15,23.0359521 Z M24.5515789,13.2490013 C23.8673684,13.2490013 23.32,12.689747 23.32,11.9906791 C23.32,11.2916112 23.8673684,10.7323569 24.5515789,10.7323569 C25.2357895,10.7323569 25.7831579,11.2916112 25.7831579,11.9906791 C25.7557895,12.689747 25.2084211,13.2490013 24.5515789,13.2490013 Z M15,13.2490013 C17.1894737,13.2490013 18.9410526,15.0945406 18.9410526,17.3035952 C18.9410526,19.5126498 17.1894737,21.3302264 15,21.3302264 C12.8105263,21.3302264 11.0589474,19.4846871 11.0589474,17.2756325 C11.0589474,15.0665779 12.8105263,13.2490013 15,13.2490013 Z" id="Shape" fill="#3C4D63" fill-rule="nonzero"></path>
    </g>
</svg>