<?xml version="1.0" encoding="UTF-8"?>
<svg width="30px" height="30px" viewBox="0 0 30 30" version="1.1" xmlns="http://www.w3.org/2000/svg" xmlns:xlink="http://www.w3.org/1999/xlink">
    <!-- Generator: Sketch 52 (66869) - http://www.bohemiancoding.com/sketch -->
    <title>icons / upload</title>
    <desc>Created with Sketch.</desc>
    <defs>
        <path d="M15,4.12072333 C12.6658696,4.12072333 10.3190543,5.03071333 8.53940217,6.84989 C7.21591304,8.20278 6.41357609,9.88106667 6.07336957,11.6311333 C2.61981522,12.316 -3.26086962e-08,15.3991 -3.26086962e-08,19.1207333 C-3.26086962e-08,23.3430333 3.36945652,26.7874 7.5,26.7874 L23.4782609,26.7874 C27.0743804,26.7874 30,23.7967667 30,20.1207333 C30,16.6513333 27.3853696,13.8270333 24.0692935,13.5165667 C24.0846196,11.1035333 23.2461848,8.68556667 21.4503913,6.84989 C19.6723043,5.03219667 17.3341304,4.12072333 15,4.12072333 Z M15,6.12072333 C16.8385435,6.12072333 18.6591848,6.8195 20.0645217,8.25614 C21.6885652,9.91623333 22.3757935,12.1717333 22.1229783,14.3290667 C22.0879701,14.613362 22.1739347,14.8993516 22.3590694,15.1145012 C22.5442042,15.3296509 22.8107239,15.4532922 23.0910326,15.4540667 L23.4782609,15.4540667 C26.0243152,15.4540667 28.0434783,17.5181 28.0434783,20.1207333 C28.0434783,22.7233667 26.0243152,24.7874 23.4782609,24.7874 L7.5,24.7874 C4.4268913,24.7874 1.95652174,22.2621333 1.95652174,19.1207333 C1.95652174,16.1541 4.1636413,13.7372333 6.99048913,13.4749 C7.44719845,13.4294073 7.81161181,13.0655589 7.86684783,12.5999 C8.04684783,11.0148667 8.73296739,9.47493333 9.92527174,8.25614 C11.3292717,6.82098333 13.1614565,6.12072333 15,6.12072333 Z M15,12.1207333 C14.6738478,12.1207333 14.501413,12.228 14.3376522,12.3811333 L10.7506957,15.7144667 C10.3365326,16.1074 10.3437391,16.7451 10.6895217,17.1311333 C11.035337,17.5171667 11.6959891,17.5451 12.0753913,17.1936333 L14.0217391,15.3811333 L14.0217391,21.7874 C14.0217391,22.3396667 14.4596413,22.7874 15,22.7874 C15.5403913,22.7874 15.9782609,22.3396667 15.9782609,21.7874 L15.9782609,15.3811333 L17.9246087,17.1936333 C18.3040109,17.5451 18.9447391,17.4974667 19.3104783,17.1311333 C19.6958804,16.7451 19.6253152,16.0697667 19.2493043,15.7144667 L15.6623478,12.3811333 C15.468587,12.1997667 15.3261522,12.1207333 15,12.1207333 Z" id="path-1"></path>
    </defs>
    <g id="icons-/-upload" stroke="none" stroke-width="1" fill="none" fill-rule="evenodd">
        <mask id="mask-2" fill="white">
            <use xlink:href="#path-1"></use>
        </mask>
        <use id="Mask" fill="#FFFFFF" fill-rule="nonzero" xlink:href="#path-1"></use>
        <g id="colour-/-asphalt-100" mask="url(#mask-2)" fill="#3C4D63">
            <rect id="background" x="0" y="0" width="30" height="30"></rect>
        </g>
    </g>
</svg>