<?xml version="1.0" encoding="UTF-8"?>
<svg width="30px" height="30px" viewBox="0 0 30 30" version="1.1" xmlns="http://www.w3.org/2000/svg" xmlns:xlink="http://www.w3.org/1999/xlink">
    <!-- Generator: Sketch 51.3 (57544) - http://www.bohemiancoding.com/sketch -->
    <title>icons / wheel</title>
    <desc>Created with Sketch.</desc>
    <defs></defs>
    <g id="icons-/-wheel" stroke="none" stroke-width="1" fill="none" fill-rule="evenodd">
        <path d="M28,15.5167364 L28,14.5104603 C28,14.3472803 27.8643006,14.1841004 27.6743215,14.1841004 C27.6743215,14.0753138 27.6471816,13.9665272 27.6471816,13.8577406 C27.8100209,13.8305439 27.9457203,13.667364 27.9185804,13.4769874 L27.7557411,12.4979079 C27.7286013,12.334728 27.565762,12.1987448 27.4029228,12.2259414 C27.3757829,12.1171548 27.348643,12.0083682 27.3215031,11.8995816 C27.4843424,11.8451883 27.565762,11.6548117 27.5114823,11.4916318 L27.2129436,10.539749 C27.1586639,10.376569 26.9686848,10.2949791 26.8058455,10.3221757 C26.7515658,10.2133891 26.7244259,10.1046025 26.6701461,9.9958159 C26.8329854,9.91422594 26.8872651,9.72384937 26.8058455,9.56066946 L26.3444676,8.66317992 C26.263048,8.5 26.0730689,8.44560669 25.9102296,8.52719665 C25.8559499,8.41841004 25.8016701,8.33682008 25.7202505,8.22803347 C25.8559499,8.11924686 25.8830898,7.92887029 25.7745303,7.76569038 L25.177453,6.94979079 C25.0688935,6.81380753 24.8789144,6.78661088 24.743215,6.86820084 C24.6617954,6.78661088 24.5803758,6.70502092 24.526096,6.62343096 C24.6346555,6.4874477 24.6346555,6.29707113 24.526096,6.16108787 L23.8204593,5.4539749 C23.6847599,5.31799163 23.4947808,5.31799163 23.3590814,5.4539749 C23.2776618,5.37238494 23.1962422,5.29079498 23.1148225,5.23640167 C23.223382,5.10041841 23.1691023,4.88284519 23.0334029,4.80125523 L22.2192067,4.23012552 C22.0835073,4.12133891 21.8663883,4.14853556 21.7578288,4.28451883 C21.6492693,4.23012552 21.5678497,4.17573222 21.4592902,4.09414226 C21.5407098,3.93096234 21.4592902,3.74058577 21.3235908,3.65899582 L20.4279749,3.19665272 C20.2651357,3.11506276 20.0751566,3.16945607 19.993737,3.33263598 C19.8851775,3.27824268 19.776618,3.25104603 19.6680585,3.19665272 C19.7223382,3.0334728 19.6137787,2.84309623 19.4509395,2.78870293 L18.5010438,2.48953975 C18.3382046,2.43514644 18.1482255,2.5167364 18.0939457,2.67991632 C17.9853862,2.65271967 17.8768267,2.62552301 17.7682672,2.59832636 C17.7954071,2.43514644 17.6597077,2.27196653 17.4968685,2.24476987 L16.519833,2.08158996 C16.3569937,2.05439331 16.1941545,2.16317992 16.1398747,2.35355649 C16.0313152,2.35355649 15.9227557,2.32635983 15.8141962,2.32635983 C15.8141962,2.16317992 15.6784969,2 15.4885177,2 L14.5114823,2 C14.348643,2 14.1858038,2.13598326 14.1858038,2.32635983 C14.0772443,2.32635983 13.9686848,2.35355649 13.8601253,2.35355649 C13.8329854,2.19037657 13.6701461,2.05439331 13.480167,2.08158996 L12.5031315,2.24476987 C12.3402923,2.27196653 12.2045929,2.43514644 12.2317328,2.59832636 C12.1231733,2.62552301 12.0146138,2.65271967 11.9060543,2.67991632 C11.8517745,2.5167364 11.6617954,2.43514644 11.4989562,2.48953975 L10.5490605,2.78870293 C10.3862213,2.84309623 10.2776618,3.0334728 10.3319415,3.19665272 C10.223382,3.25104603 10.1148225,3.27824268 10.006263,3.33263598 C9.92484342,3.16945607 9.7348643,3.11506276 9.57202505,3.19665272 L8.67640919,3.65899582 C8.51356994,3.74058577 8.45929019,3.93096234 8.54070981,4.09414226 C8.43215031,4.14853556 8.35073069,4.20292887 8.24217119,4.28451883 C8.13361169,4.14853556 7.94363257,4.12133891 7.78079332,4.23012552 L6.96659708,4.80125523 C6.8308977,4.91004184 6.80375783,5.10041841 6.88517745,5.23640167 C6.80375783,5.31799163 6.7223382,5.37238494 6.64091858,5.4539749 C6.50521921,5.34518828 6.31524008,5.34518828 6.17954071,5.4539749 L5.47390397,6.16108787 C5.33820459,6.29707113 5.33820459,6.4874477 5.47390397,6.62343096 C5.39248434,6.70502092 5.31106472,6.78661088 5.25678497,6.86820084 C5.12108559,6.75941423 4.9039666,6.81380753 4.82254697,6.94979079 L4.22546973,7.76569038 C4.11691023,7.90167364 4.1440501,8.11924686 4.27974948,8.22803347 C4.22546973,8.33682008 4.17118998,8.41841004 4.08977035,8.52719665 C3.92693111,8.44560669 3.73695198,8.52719665 3.65553236,8.66317992 L3.19415449,9.56066946 C3.11273486,9.72384937 3.16701461,9.91422594 3.32985386,9.9958159 C3.27557411,10.1046025 3.24843424,10.2133891 3.19415449,10.3221757 C3.03131524,10.2677824 2.84133612,10.376569 2.78705637,10.539749 L2.48851775,11.4916318 C2.434238,11.6548117 2.51565762,11.8451883 2.67849687,11.8995816 C2.65135699,12.0083682 2.62421712,12.1171548 2.59707724,12.2259414 C2.434238,12.1987448 2.27139875,12.334728 2.24425887,12.4979079 L2.08141962,13.4769874 C2.05427975,13.6401674 2.16283925,13.8033473 2.35281837,13.8577406 C2.35281837,13.9665272 2.3256785,14.0753138 2.3256785,14.1841004 C2.16283925,14.1841004 2,14.3200837 2,14.5104603 L2,15.5167364 C2,15.6799163 2.13569937,15.8430962 2.3256785,15.8430962 C2.3256785,15.9518828 2.35281837,16.0606695 2.35281837,16.1694561 C2.18997912,16.1966527 2.05427975,16.3598326 2.08141962,16.5502092 L2.24425887,17.5292887 C2.27139875,17.6924686 2.434238,17.8284519 2.59707724,17.8012552 C2.62421712,17.9100418 2.65135699,18.0188285 2.67849687,18.1276151 C2.51565762,18.1820084 2.434238,18.3723849 2.48851775,18.5355649 L2.78705637,19.4874477 C2.84133612,19.6506276 3.03131524,19.7322176 3.19415449,19.7050209 C3.24843424,19.8138075 3.27557411,19.9225941 3.32985386,20.0313808 C3.16701461,20.1129707 3.11273486,20.3033473 3.19415449,20.4665272 L3.65553236,21.3640167 C3.73695198,21.5271967 3.92693111,21.58159 4.08977035,21.5 C4.1440501,21.6087866 4.19832985,21.6903766 4.27974948,21.7991632 C4.1440501,21.9079498 4.11691023,22.0983264 4.22546973,22.2343096 L4.82254697,23.0502092 C4.93110647,23.1861925 5.12108559,23.2133891 5.25678497,23.1317992 C5.33820459,23.2133891 5.39248434,23.2949791 5.47390397,23.376569 C5.36534447,23.5125523 5.36534447,23.7029289 5.47390397,23.8389121 L6.17954071,24.5460251 C6.31524008,24.6820084 6.50521921,24.6820084 6.64091858,24.5460251 C6.7223382,24.6276151 6.80375783,24.709205 6.88517745,24.7635983 C6.77661795,24.8995816 6.8308977,25.1171548 6.96659708,25.1987448 L7.78079332,25.7698745 C7.91649269,25.8786611 8.13361169,25.8514644 8.24217119,25.7154812 C8.35073069,25.7698745 8.43215031,25.8242678 8.54070981,25.9058577 C8.45929019,26.0690377 8.54070981,26.2594142 8.67640919,26.3410042 L9.57202505,26.8033473 C9.7348643,26.8849372 9.92484342,26.8305439 10.006263,26.667364 C10.1148225,26.7217573 10.223382,26.748954 10.3319415,26.8033473 C10.2776618,26.9665272 10.3862213,27.1569038 10.5490605,27.2112971 L11.4989562,27.5104603 C11.6617954,27.5648536 11.8517745,27.4832636 11.9060543,27.3200837 C12.0146138,27.3472803 12.1231733,27.374477 12.2317328,27.4016736 C12.2045929,27.5648536 12.3402923,27.7280335 12.5031315,27.7552301 L13.480167,27.91841 C13.6430063,27.9456067 13.8058455,27.8368201 13.8601253,27.6464435 C13.9686848,27.6464435 14.0772443,27.6736402 14.1858038,27.6736402 C14.1858038,27.8368201 14.348643,28 14.5114823,28 L15.4885177,28 C15.6784969,28 15.8141962,27.8640167 15.8141962,27.6736402 C15.9227557,27.6736402 16.0313152,27.6464435 16.1398747,27.6464435 C16.1670146,27.8096234 16.3298539,27.9456067 16.519833,27.91841 L17.4968685,27.7552301 C17.6597077,27.7280335 17.7954071,27.5648536 17.7682672,27.4016736 C17.8768267,27.374477 17.9853862,27.3472803 18.0939457,27.3200837 C18.1482255,27.4832636 18.3382046,27.5648536 18.5010438,27.5104603 L19.4509395,27.2112971 C19.6137787,27.1569038 19.7223382,26.9665272 19.6680585,26.8033473 C19.776618,26.748954 19.8851775,26.7217573 19.993737,26.667364 C20.0751566,26.8305439 20.2651357,26.8849372 20.4279749,26.8033473 L21.3235908,26.3410042 C21.4864301,26.2594142 21.5407098,26.0690377 21.4592902,25.9058577 C21.5678497,25.8514644 21.6492693,25.7970711 21.7578288,25.7154812 C21.8663883,25.8514644 22.0563674,25.8786611 22.2192067,25.7698745 L23.0334029,25.1987448 C23.1691023,25.0899582 23.1962422,24.8995816 23.1148225,24.7635983 C23.1962422,24.6820084 23.2776618,24.6276151 23.3590814,24.5460251 C23.4947808,24.6548117 23.6847599,24.6548117 23.8204593,24.5460251 L24.526096,23.8389121 C24.6617954,23.7029289 24.6617954,23.5125523 24.526096,23.376569 C24.6075157,23.2949791 24.6889353,23.2133891 24.743215,23.1317992 C24.8789144,23.2405858 25.0960334,23.1861925 25.177453,23.0502092 L25.7745303,22.2343096 C25.8830898,22.0983264 25.8559499,21.9079498 25.7202505,21.7991632 C25.7745303,21.6903766 25.82881,21.6087866 25.9102296,21.5 C26.0730689,21.58159 26.263048,21.5 26.3444676,21.3640167 L26.8058455,20.4665272 C26.8872651,20.3033473 26.8329854,20.1129707 26.6701461,20.0313808 C26.7244259,19.9225941 26.7515658,19.8138075 26.8058455,19.7050209 C26.9686848,19.7594142 27.1586639,19.6506276 27.2129436,19.4874477 L27.5114823,18.5355649 C27.565762,18.3723849 27.4843424,18.1820084 27.3215031,18.1276151 C27.348643,18.0188285 27.3757829,17.9100418 27.4029228,17.8012552 C27.565762,17.8284519 27.7286013,17.6924686 27.7557411,17.5292887 L27.9185804,16.5502092 C27.9457203,16.3870293 27.8371608,16.2238494 27.6471816,16.1694561 C27.6471816,16.0606695 27.6743215,15.9518828 27.6743215,15.8430962 C27.8643006,15.8430962 28,15.707113 28,15.5167364 Z M15.1085595,23.3221757 C10.5490605,23.3221757 6.8308977,19.623431 6.8308977,15.0271967 C6.8308977,10.4309623 10.5219207,6.73221757 15.1085595,6.73221757 C19.6680585,6.73221757 23.3862213,10.4309623 23.3862213,15.0271967 C23.3862213,19.623431 19.6680585,23.3221757 15.1085595,23.3221757 Z M15.1085595,7.84728033 C11.1461378,7.84728033 7.94363257,11.0564854 7.94363257,15.0271967 C7.94363257,18.9979079 11.1461378,22.207113 15.1085595,22.207113 C19.0709812,22.207113 22.2734864,18.9979079 22.2734864,15.0271967 C22.2734864,11.0564854 19.0709812,7.84728033 15.1085595,7.84728033 Z M16.4112735,15.0271967 C16.4112735,15.7615063 15.8141962,16.332636 15.1085595,16.332636 C14.3757829,16.332636 13.8058455,15.7343096 13.8058455,15.0271967 C13.8058455,14.292887 14.4029228,13.7217573 15.1085595,13.7217573 C15.8413361,13.7217573 16.4112735,14.292887 16.4112735,15.0271967 Z M14.2129436,9.50627615 L14.2129436,12.5523013 C13.7515658,12.7154812 13.3444676,13.0146444 13.045929,13.3953975 L10.1419624,12.4435146 C10.9561587,10.9205021 12.4488518,9.77824268 14.2129436,9.50627615 Z M9.5177453,15.0271967 C9.5177453,14.7280335 9.54488518,14.4288703 9.59916493,14.1569038 L12.4759916,15.1087866 C12.4759916,15.625523 12.6388309,16.1150628 12.9102296,16.5230126 L11.1189979,18.9979079 C10.1419624,17.9644351 9.5177453,16.5502092 9.5177453,15.0271967 Z M15.1085595,20.6297071 C14.1858038,20.6297071 13.3444676,20.4121339 12.5845511,20.0313808 L14.3757829,17.5564854 C14.6200418,17.6380753 14.8643006,17.665272 15.1085595,17.665272 C15.3799582,17.665272 15.6242171,17.6380753 15.8413361,17.5564854 L17.6325678,20.0313808 C16.8726514,20.4121339 16.0313152,20.6297071 15.1085595,20.6297071 Z M20.6993737,15.0271967 C20.6993737,16.5502092 20.0751566,17.9644351 19.0709812,18.9707113 L17.2797495,16.4958159 C17.5511482,16.0878661 17.7139875,15.5983264 17.7139875,15.08159 L20.5908142,14.1297071 C20.6722338,14.4288703 20.6993737,14.7280335 20.6993737,15.0271967 Z M17.17119,13.3953975 C16.8726514,13.0146444 16.4655532,12.7154812 16.0041754,12.5523013 L16.0041754,9.50627615 C17.7682672,9.80543933 19.2609603,10.9205021 20.0751566,12.4435146 L17.17119,13.3953975 Z" id="Combined-Shape" fill="#3C4D63" fill-rule="nonzero"></path>
    </g>
</svg>